<?xml version="1.0" encoding="UTF-8"?>
<svg width="32" height="32" viewBox="0 0 32 32" xmlns="http://www.w3.org/2000/svg">
  <!-- Background with gradient -->
  <defs>
    <linearGradient id="bgGradient32" x1="0%" y1="0%" x2="100%" y2="100%">
      <stop offset="0%" style="stop-color:#4A90E2;stop-opacity:1" />
      <stop offset="100%" style="stop-color:#357ABD;stop-opacity:1" />
    </linearGradient>
    <filter id="shadow" x="-20%" y="-20%" width="140%" height="140%">
      <feDropShadow dx="1" dy="1" stdDeviation="1" flood-opacity="0.3"/>
    </filter>
  </defs>
  
  <!-- Rounded rectangle background with shadow -->
  <rect width="32" height="32" fill="url(#bgGradient32)" rx="4" ry="4" filter="url(#shadow)"/>
  
  <!-- Protocol/specification symbol - stylized brackets with content -->
  <g fill="white" opacity="0.9">
    <!-- Left bracket -->
    <path d="M6 8 L6 24 L8 24 L8 10 L10 10 L10 8 Z" stroke="white" stroke-width="0.5"/>
    <!-- Right bracket -->
    <path d="M26 8 L26 24 L24 24 L24 10 L22 10 L22 8 Z" stroke="white" stroke-width="0.5"/>
    
    <!-- Center content representing structured data/protocol fields -->
    <rect x="12" y="12" width="8" height="2" rx="1"/>
    <rect x="12" y="16" width="6" height="2" rx="1"/>
    <rect x="12" y="20" width="8" height="2" rx="1"/>
    
    <!-- Small dots to represent data types -->
    <circle cx="14" cy="13" r="0.5" opacity="0.7"/>
    <circle cx="14" cy="17" r="0.5" opacity="0.7"/>
    <circle cx="14" cy="21" r="0.5" opacity="0.7"/>
  </g>
  
  <!-- Subtle "M" for MSpec in corner -->
  <text x="26" y="30" font-family="Arial, sans-serif" font-size="6" font-weight="bold" fill="white" opacity="0.6">M</text>
</svg>
